<svg width="34" height="21" viewBox="0 0 34 21" fill="none" xmlns="http://www.w3.org/2000/svg">
    <path d="M33.5417 6.88086H0.541748V8.39029H33.5417V6.88086Z" fill="#DB2E2E" />
    <path d="M33.5417 3.8623H0.541748V5.37174H33.5417V3.8623Z" fill="#DB2E2E" />
    <path d="M33.5417 0.749023H0.541748V2.25846H33.5417V0.749023Z" fill="#DB2E2E" />
    <path d="M33.5417 9.99414H0.541748V11.5036H33.5417V9.99414Z" fill="#DB2E2E" />
    <path d="M33.5417 13.0132H0.541748V14.5226H33.5417V13.0132Z" fill="#DB2E2E" />
    <path d="M33.5417 16.1265H0.541748V17.6359H33.5417V16.1265Z" fill="#DB2E2E" />
    <path d="M33.5417 19.2397H0.541748V20.7492H33.5417V19.2397Z" fill="#DB2E2E" />
    <path d="M33.5417 5.37158H0.541748V6.88102H33.5417V5.37158Z" fill="white" />
    <path d="M33.5417 2.2583H0.541748V3.76773H33.5417V2.2583Z" fill="white" />
    <path d="M33.5417 8.48486H0.541748V9.9943H33.5417V8.48486Z" fill="white" />
    <path d="M33.5417 11.5039H0.541748V13.0133H33.5417V11.5039Z" fill="white" />
    <path d="M33.5417 14.6172H0.541748V16.1266H33.5417V14.6172Z" fill="white" />
    <path d="M33.5417 17.6357H0.541748V19.1452H33.5417V17.6357Z" fill="white" />
    <path d="M12.8566 0.843262H0.541748V10.1829H12.8566V0.843262Z" fill="#2E4593" />
    <path
        d="M10.8363 2.63586L10.9325 3.01322L10.6439 2.82454L10.3553 3.01322L10.4515 2.63586L10.1628 2.44718H10.5477L10.6439 2.06982L10.7401 2.44718H11.1249L10.8363 2.63586Z"
        fill="white" />
    <path
        d="M10.8363 4.52258L10.9325 4.89994L10.6439 4.61692L10.3553 4.89994L10.4515 4.52258L10.1628 4.3339H10.5477L10.6439 3.95654L10.7401 4.3339H11.1249L10.8363 4.52258Z"
        fill="white" />
    <path
        d="M10.8363 6.4093L10.9325 6.78666L10.6439 6.50364L10.3553 6.78666L10.4515 6.4093L10.1628 6.22062H10.5477L10.6439 5.84326L10.7401 6.22062H11.1249L10.8363 6.4093Z"
        fill="white" />
    <path
        d="M10.8363 8.29602L10.9325 8.67338L10.6439 8.39036L10.3553 8.67338L10.4515 8.29602L10.1628 8.10734H10.5477L10.6439 7.72998L10.7401 8.10734H11.1249L10.8363 8.29602Z"
        fill="white" />
    <path
        d="M8.81605 2.63586L8.91226 3.01322L8.62363 2.82454L8.335 3.01322L8.43121 2.63586L8.14258 2.44718H8.52742L8.62363 2.06982L8.71984 2.44718H9.10468L8.81605 2.63586Z"
        fill="white" />
    <path
        d="M8.81605 4.52258L8.91226 4.89994L8.62363 4.61692L8.335 4.89994L8.43121 4.52258L8.14258 4.3339H8.52742L8.62363 3.95654L8.71984 4.3339H9.10468L8.81605 4.52258Z"
        fill="white" />
    <path
        d="M8.81605 6.4093L8.91226 6.78666L8.62363 6.50364L8.335 6.78666L8.43121 6.4093L8.14258 6.22062H8.52742L8.62363 5.84326L8.71984 6.22062H9.10468L8.81605 6.4093Z"
        fill="white" />
    <path
        d="M8.81605 8.29602L8.91226 8.67338L8.62363 8.39036L8.335 8.67338L8.43121 8.29602L8.14258 8.10734H8.52742L8.62363 7.72998L8.71984 8.10734H9.10468L8.81605 8.29602Z"
        fill="white" />
    <path
        d="M6.79554 2.63586L6.89175 3.01322L6.60312 2.82454L6.31449 3.01322L6.4107 2.63586L6.12207 2.44718H6.50691L6.60312 2.06982L6.69933 2.44718H7.08417L6.79554 2.63586Z"
        fill="white" />
    <path
        d="M6.79554 4.52258L6.89175 4.89994L6.60312 4.61692L6.31449 4.89994L6.4107 4.52258L6.12207 4.3339H6.50691L6.60312 3.95654L6.69933 4.3339H7.08417L6.79554 4.52258Z"
        fill="white" />
    <path
        d="M6.79554 6.4093L6.89175 6.78666L6.60312 6.50364L6.31449 6.78666L6.4107 6.4093L6.12207 6.22062H6.50691L6.60312 5.84326L6.69933 6.22062H7.08417L6.79554 6.4093Z"
        fill="white" />
    <path
        d="M6.79554 8.29602L6.89175 8.67338L6.60312 8.39036L6.31449 8.67338L6.4107 8.29602L6.12207 8.10734H6.50691L6.60312 7.72998L6.69933 8.10734H7.08417L6.79554 8.29602Z"
        fill="white" />
    <path
        d="M4.77503 2.63586L4.87124 3.01322L4.58261 2.82454L4.29398 3.01322L4.39019 2.63586L4.10156 2.44718H4.4864L4.58261 2.06982L4.67882 2.44718H5.06366L4.77503 2.63586Z"
        fill="white" />
    <path
        d="M4.77503 4.52258L4.87124 4.89994L4.58261 4.61692L4.29398 4.89994L4.39019 4.52258L4.10156 4.3339H4.4864L4.58261 3.95654L4.67882 4.3339H5.06366L4.77503 4.52258Z"
        fill="white" />
    <path
        d="M4.77503 6.4093L4.87124 6.78666L4.58261 6.50364L4.29398 6.78666L4.39019 6.4093L4.10156 6.22062H4.4864L4.58261 5.84326L4.67882 6.22062H5.06366L4.77503 6.4093Z"
        fill="white" />
    <path
        d="M4.77503 8.29602L4.87124 8.67338L4.58261 8.39036L4.29398 8.67338L4.39019 8.29602L4.10156 8.10734H4.4864L4.58261 7.72998L4.67882 8.10734H5.06366L4.77503 8.29602Z"
        fill="white" />
    <path
        d="M2.75452 2.63586L2.85073 3.01322L2.5621 2.82454L2.27347 3.01322L2.36968 2.63586L2.08105 2.44718H2.46589L2.5621 2.06982L2.65831 2.44718H3.04315L2.75452 2.63586Z"
        fill="white" />
    <path
        d="M2.75452 4.52258L2.85073 4.89994L2.5621 4.61692L2.27347 4.89994L2.36968 4.52258L2.08105 4.3339H2.46589L2.5621 3.95654L2.65831 4.3339H3.04315L2.75452 4.52258Z"
        fill="white" />
    <path
        d="M2.75452 6.4093L2.85073 6.78666L2.5621 6.50364L2.27347 6.78666L2.36968 6.4093L2.08105 6.22062H2.46589L2.5621 5.84326L2.65831 6.22062H3.04315L2.75452 6.4093Z"
        fill="white" />
    <path
        d="M2.75452 8.29602L2.85073 8.67338L2.5621 8.39036L2.27347 8.67338L2.36968 8.29602L2.08105 8.10734H2.46589L2.5621 7.72998L2.65831 8.10734H3.04315L2.75452 8.29602Z"
        fill="white" />
    <path
        d="M11.7985 3.57922L11.9909 3.95658L11.606 3.7679V3.67356V3.7679L11.3174 3.95658L11.5098 3.57922L11.125 3.39054H11.5098L11.606 3.01318L11.7985 3.39054H12.1833L11.7985 3.57922Z"
        fill="white" />
    <path
        d="M11.7985 5.46594L11.9909 5.8433L11.606 5.56028L11.3174 5.8433L11.5098 5.46594L11.125 5.27726H11.5098L11.606 4.8999L11.7985 5.27726H12.1833L11.7985 5.46594Z"
        fill="white" />
    <path
        d="M11.7985 7.35266L11.9909 7.73002L11.606 7.447L11.3174 7.73002L11.5098 7.35266L11.125 7.16398H11.5098L11.606 6.78662L11.7985 7.16398H12.1833L11.7985 7.35266Z"
        fill="white" />
    <path
        d="M11.7985 9.23987L11.9909 9.61722L11.606 9.33421L11.3174 9.61722L11.5098 9.23987L11.125 9.05119H11.5098L11.606 8.67383L11.7985 9.05119H12.1833L11.7985 9.23987Z"
        fill="white" />
    <path
        d="M11.7985 1.6925L11.9909 2.06986L11.606 1.88118L11.3174 2.06986L11.5098 1.6925L11.125 1.50382H11.5098L11.606 1.12646L11.7985 1.50382H12.1833L11.7985 1.6925Z"
        fill="white" />
    <path
        d="M9.87415 3.57922L9.97036 3.95658L9.68173 3.7679V3.67356V3.7679L9.3931 3.95658L9.48931 3.57922L9.20068 3.39054H9.58552L9.68173 3.01318L9.77794 3.39054H10.1628L9.87415 3.57922Z"
        fill="white" />
    <path
        d="M9.87415 5.46594L9.97036 5.8433L9.68173 5.56028L9.3931 5.8433L9.48931 5.46594L9.20068 5.27726H9.58552L9.68173 4.8999L9.77794 5.27726H10.1628L9.87415 5.46594Z"
        fill="white" />
    <path
        d="M9.87415 7.35266L9.97036 7.73002L9.68173 7.447L9.3931 7.73002L9.48931 7.35266L9.20068 7.16398H9.58552L9.68173 6.78662L9.77794 7.16398H10.1628L9.87415 7.35266Z"
        fill="white" />
    <path
        d="M9.87415 9.23987L9.97036 9.61722L9.68173 9.33421L9.3931 9.61722L9.48931 9.23987L9.20068 9.05119H9.58552L9.68173 8.67383L9.77794 9.05119H10.1628L9.87415 9.23987Z"
        fill="white" />
    <path
        d="M9.87415 1.6925L9.97036 2.06986L9.68173 1.88118L9.3931 2.06986L9.48931 1.6925L9.20068 1.50382H9.58552L9.68173 1.12646L9.77794 1.50382H10.1628L9.87415 1.6925Z"
        fill="white" />
    <path
        d="M7.7577 3.57922L7.85391 3.95658L7.56528 3.7679V3.67356V3.7679L7.27665 3.95658L7.37286 3.57922L7.08423 3.39054H7.46907L7.56528 3.01318L7.66149 3.39054H8.04633L7.7577 3.57922Z"
        fill="white" />
    <path
        d="M7.7577 5.46594L7.85391 5.8433L7.56528 5.56028L7.27665 5.8433L7.37286 5.46594L7.08423 5.27726H7.46907L7.56528 4.8999L7.66149 5.27726H8.04633L7.7577 5.46594Z"
        fill="white" />
    <path
        d="M7.7577 7.35266L7.85391 7.73002L7.56528 7.447L7.27665 7.73002L7.37286 7.35266L7.08423 7.16398H7.46907L7.56528 6.78662L7.66149 7.16398H8.04633L7.7577 7.35266Z"
        fill="white" />
    <path
        d="M7.7577 9.23987L7.85391 9.61722L7.56528 9.33421L7.27665 9.61722L7.37286 9.23987L7.08423 9.05119H7.46907L7.56528 8.67383L7.66149 9.05119H8.04633L7.7577 9.23987Z"
        fill="white" />
    <path
        d="M7.7577 1.6925L7.85391 2.06986L7.56528 1.88118L7.27665 2.06986L7.37286 1.6925L7.08423 1.50382H7.46907L7.56528 1.12646L7.66149 1.50382H8.04633L7.7577 1.6925Z"
        fill="white" />
    <path
        d="M5.73719 3.57922L5.8334 3.95658L5.54477 3.7679V3.67356V3.7679L5.25614 3.95658L5.35235 3.57922L5.06372 3.39054H5.44856L5.54477 3.01318L5.64098 3.39054H6.02582L5.73719 3.57922Z"
        fill="white" />
    <path
        d="M5.73719 5.46594L5.8334 5.8433L5.54477 5.56028L5.25614 5.8433L5.35235 5.46594L5.06372 5.27726H5.44856L5.54477 4.8999L5.64098 5.27726H6.02582L5.73719 5.46594Z"
        fill="white" />
    <path
        d="M5.73719 7.35266L5.8334 7.73002L5.54477 7.447L5.25614 7.73002L5.35235 7.35266L5.06372 7.16398H5.44856L5.54477 6.78662L5.64098 7.16398H6.02582L5.73719 7.35266Z"
        fill="white" />
    <path
        d="M5.73719 9.23987L5.8334 9.61722L5.54477 9.33421L5.25614 9.61722L5.35235 9.23987L5.06372 9.05119H5.44856L5.54477 8.67383L5.64098 9.05119H6.02582L5.73719 9.23987Z"
        fill="white" />
    <path
        d="M5.73719 1.6925L5.8334 2.06986L5.54477 1.88118L5.25614 2.06986L5.35235 1.6925L5.06372 1.50382H5.44856L5.54477 1.12646L5.64098 1.50382H6.02582L5.73719 1.6925Z"
        fill="white" />
    <path
        d="M3.71668 3.57922L3.9091 3.95658L3.52426 3.7679V3.67356V3.7679L3.23563 3.95658L3.42805 3.57922L3.04321 3.39054H3.42805L3.52426 3.01318L3.71668 3.39054H4.10152L3.71668 3.57922Z"
        fill="white" />
    <path
        d="M3.71668 5.46594L3.9091 5.8433L3.52426 5.56028L3.23563 5.8433L3.42805 5.46594L3.04321 5.27726H3.42805L3.52426 4.8999L3.71668 5.27726H4.10152L3.71668 5.46594Z"
        fill="white" />
    <path
        d="M3.71668 7.35266L3.9091 7.73002L3.52426 7.447L3.23563 7.73002L3.42805 7.35266L3.04321 7.16398H3.42805L3.52426 6.78662L3.71668 7.16398H4.10152L3.71668 7.35266Z"
        fill="white" />
    <path
        d="M3.71668 9.23987L3.9091 9.61722L3.52426 9.33421L3.23563 9.61722L3.42805 9.23987L3.04321 9.05119H3.42805L3.52426 8.67383L3.71668 9.05119H4.10152L3.71668 9.23987Z"
        fill="white" />
    <path
        d="M3.71668 1.6925L3.9091 2.06986L3.52426 1.88118L3.23563 2.06986L3.42805 1.6925L3.04321 1.50382H3.42805L3.52426 1.12646L3.71668 1.50382H4.10152L3.71668 1.6925Z"
        fill="white" />
    <path
        d="M1.69642 3.57922L1.88884 3.95658L1.60021 3.7679L1.504 3.67356V3.7679L1.21537 3.95658L1.40779 3.57922L1.02295 3.39054H1.40779L1.504 3.01318L1.69642 3.39054H2.08126L1.69642 3.57922Z"
        fill="white" />
    <path
        d="M1.69642 5.46594L1.88884 5.8433L1.60021 5.56028H1.504L1.21537 5.8433L1.40779 5.46594L1.02295 5.27726H1.40779L1.504 4.8999L1.69642 5.27726H2.08126L1.69642 5.46594Z"
        fill="white" />
    <path
        d="M1.69642 7.35266L1.88884 7.73002L1.60021 7.447H1.504L1.21537 7.73002L1.40779 7.35266L1.02295 7.16398H1.40779L1.504 6.78662L1.69642 7.16398H2.08126L1.69642 7.35266Z"
        fill="white" />
    <path
        d="M1.69642 9.23987L1.88884 9.61722L1.60021 9.33421H1.504L1.21537 9.61722L1.40779 9.23987L1.02295 9.05119H1.40779L1.504 8.67383L1.69642 9.05119H2.08126L1.69642 9.23987Z"
        fill="white" />
    <path
        d="M1.69642 1.6925L1.88884 2.06986L1.60021 1.88118H1.504L1.21537 2.06986L1.40779 1.6925L1.02295 1.50382H1.40779L1.504 1.12646L1.69642 1.50382H2.08126L1.69642 1.6925Z"
        fill="white" />
</svg>